<?xml version="1.0" encoding="utf-8"?>
<!-- Generator: Adobe Illustrator 22.1.0, SVG Export Plug-In . SVG Version: 6.00 Build 0)  -->
<svg version="1.1" id="Capa_1" xmlns="http://www.w3.org/2000/svg" xmlns:xlink="http://www.w3.org/1999/xlink" x="0px" y="0px"
	 viewBox="0 0 512 512" style="enable-background:new 0 0 512 512;" xml:space="preserve">
<style type="text/css">
	.st0{fill:url(#SVGID_1_);}
	.st1{fill:url(#SVGID_2_);}
	.st2{fill:url(#SVGID_3_);}
	.st3{fill:url(#SVGID_4_);}
	.st4{fill:url(#SVGID_5_);}
	.st5{fill:url(#SVGID_6_);}
	.st6{fill:url(#SVGID_7_);}
	.st7{fill:url(#SVGID_8_);}
	.st8{fill:url(#SVGID_9_);}
	.st9{fill:url(#SVGID_10_);}
	.st10{fill:url(#SVGID_11_);}
	.st11{fill:url(#SVGID_12_);}
	.st12{fill:url(#SVGID_13_);}
	.st13{fill:url(#SVGID_14_);}
	.st14{fill:url(#SVGID_15_);}
</style>
<g>
	<g>
		<linearGradient id="SVGID_1_" gradientUnits="userSpaceOnUse" x1="255.5072" y1="481.0012" x2="256.5072" y2="65.0012">
			<stop  offset="0" style="stop-color:#FF6A42"/>
			<stop  offset="1" style="stop-color:#2149CC"/>
		</linearGradient>
		<path class="st0" d="M452,40h-24V8.4c0-4.6-3.8-8.4-8.4-8.4h-23.4c-4.6,0-8.2,3.7-8.2,8.2V40H124V8.4c0-4.6-3.8-8.4-8.4-8.4H92.4
			C87.8,0,84,3.8,84,8.4V40H60C26.9,40,0,66.9,0,100v352c0,33.1,26.9,60,60,60h392c33.1,0,60-26.9,60-60V100
			C512,66.9,485.1,40,452,40z M472,452c0,11-9,20-20,20H60c-11,0-20-9-20-20V188h432V452z M472,148H40v-48c0-11,9-20,20-20h24v31.7
			c0,4.6,3.7,8.3,8.3,8.3h23.4c4.5,0,8.2-3.7,8.2-8.2V80h264v31.7c0,4.6,3.7,8.3,8.3,8.3h23.4c4.6,0,8.3-3.7,8.3-8.3V80h24
			c11,0,20,9,20,20V148z"/>
	</g>
</g>
<g>
	<g>
		<linearGradient id="SVGID_2_" gradientUnits="userSpaceOnUse" x1="95.4456" y1="480.6165" x2="96.4456" y2="64.6165">
			<stop  offset="0" style="stop-color:#FF6A42"/>
			<stop  offset="1" style="stop-color:#2149CC"/>
		</linearGradient>
		<path class="st1" d="M85.1,230h21.9c5,0,9.1,4.1,9.1,9.1v21.9c0,5-4.1,9.1-9.1,9.1H85.1c-5,0-9.1-4.1-9.1-9.1v-21.9
			C76,234.1,80.1,230,85.1,230z"/>
	</g>
</g>
<g>
	<g>
		<linearGradient id="SVGID_3_" gradientUnits="userSpaceOnUse" x1="175.4452" y1="480.8088" x2="176.4452" y2="64.8088">
			<stop  offset="0" style="stop-color:#FF6A42"/>
			<stop  offset="1" style="stop-color:#2149CC"/>
		</linearGradient>
		<path class="st2" d="M164.4,230h23.1c4.7,0,8.4,3.8,8.4,8.4v23.1c0,4.7-3.8,8.4-8.4,8.4h-23.1c-4.7,0-8.4-3.8-8.4-8.4v-23.1
			C156,233.8,159.8,230,164.4,230z"/>
	</g>
</g>
<g>
	<g>
		<linearGradient id="SVGID_4_" gradientUnits="userSpaceOnUse" x1="255.4447" y1="481.0011" x2="256.4447" y2="65.0011">
			<stop  offset="0" style="stop-color:#FF6A42"/>
			<stop  offset="1" style="stop-color:#2149CC"/>
		</linearGradient>
		<path class="st3" d="M243.8,230h24.3c4.3,0,7.9,3.5,7.9,7.9v24.3c0,4.3-3.5,7.9-7.9,7.9h-24.3c-4.3,0-7.9-3.5-7.9-7.9v-24.3
			C236,233.5,239.5,230,243.8,230z"/>
	</g>
</g>
<g>
	<g>
		<linearGradient id="SVGID_5_" gradientUnits="userSpaceOnUse" x1="335.4442" y1="481.1934" x2="336.4442" y2="65.1934">
			<stop  offset="0" style="stop-color:#FF6A42"/>
			<stop  offset="1" style="stop-color:#2149CC"/>
		</linearGradient>
		<path class="st4" d="M324.3,230h23.3c4.6,0,8.3,3.7,8.3,8.3v23.3c0,4.6-3.7,8.3-8.3,8.3h-23.3c-4.6,0-8.3-3.7-8.3-8.3v-23.3
			C316,233.7,319.7,230,324.3,230z"/>
	</g>
</g>
<g>
	<g>
		<linearGradient id="SVGID_6_" gradientUnits="userSpaceOnUse" x1="415.4438" y1="481.3857" x2="416.4438" y2="65.3857">
			<stop  offset="0" style="stop-color:#FF6A42"/>
			<stop  offset="1" style="stop-color:#2149CC"/>
		</linearGradient>
		<path class="st5" d="M404.6,230h22.7c4.8,0,8.6,3.9,8.6,8.6v22.7c0,4.8-3.9,8.6-8.6,8.6h-22.7c-4.8,0-8.6-3.9-8.6-8.6v-22.7
			C396,233.9,399.9,230,404.6,230z"/>
	</g>
</g>
<g>
	<g>
		<linearGradient id="SVGID_7_" gradientUnits="userSpaceOnUse" x1="95.6379" y1="480.6169" x2="96.6379" y2="64.6169">
			<stop  offset="0" style="stop-color:#FF6A42"/>
			<stop  offset="1" style="stop-color:#2149CC"/>
		</linearGradient>
		<path class="st6" d="M84.5,310h23.1c4.7,0,8.5,3.8,8.5,8.5v23.1c0,4.7-3.8,8.5-8.5,8.5H84.5c-4.7,0-8.5-3.8-8.5-8.5v-23.1
			C76,313.8,79.8,310,84.5,310z"/>
	</g>
</g>
<g>
	<g>
		<linearGradient id="SVGID_8_" gradientUnits="userSpaceOnUse" x1="175.6375" y1="480.8092" x2="176.6375" y2="64.8092">
			<stop  offset="0" style="stop-color:#FF6A42"/>
			<stop  offset="1" style="stop-color:#2149CC"/>
		</linearGradient>
		<path class="st7" d="M164.3,310h23.3c4.6,0,8.3,3.7,8.3,8.3v23.3c0,4.6-3.7,8.3-8.3,8.3h-23.3c-4.6,0-8.3-3.7-8.3-8.3v-23.3
			C156,313.7,159.7,310,164.3,310z"/>
	</g>
</g>
<g>
	<g>
		<linearGradient id="SVGID_9_" gradientUnits="userSpaceOnUse" x1="255.637" y1="481.0015" x2="256.637" y2="65.0015">
			<stop  offset="0" style="stop-color:#FF6A42"/>
			<stop  offset="1" style="stop-color:#2149CC"/>
		</linearGradient>
		<path class="st8" d="M244.4,310h23.2c4.6,0,8.4,3.8,8.4,8.4v23.2c0,4.6-3.8,8.4-8.4,8.4h-23.2c-4.6,0-8.4-3.8-8.4-8.4v-23.2
			C236,313.8,239.8,310,244.4,310z"/>
	</g>
</g>
<g>
	<g>
		<linearGradient id="SVGID_10_" gradientUnits="userSpaceOnUse" x1="335.6366" y1="481.1938" x2="336.6366" y2="65.1938">
			<stop  offset="0" style="stop-color:#FF6A42"/>
			<stop  offset="1" style="stop-color:#2149CC"/>
		</linearGradient>
		<path class="st9" d="M324.4,310h23.2c4.6,0,8.4,3.8,8.4,8.4v23.2c0,4.6-3.8,8.4-8.4,8.4h-23.2c-4.6,0-8.4-3.8-8.4-8.4v-23.2
			C316,313.8,319.8,310,324.4,310z"/>
	</g>
</g>
<g>
	<g>
		<linearGradient id="SVGID_11_" gradientUnits="userSpaceOnUse" x1="95.8302" y1="480.6174" x2="96.8302" y2="64.6174">
			<stop  offset="0" style="stop-color:#FF6A42"/>
			<stop  offset="1" style="stop-color:#2149CC"/>
		</linearGradient>
		<path class="st10" d="M84.6,390h22.8c4.8,0,8.6,3.9,8.6,8.6v22.8c0,4.8-3.9,8.6-8.6,8.6H84.6c-4.8,0-8.6-3.9-8.6-8.6v-22.8
			C76,393.9,79.9,390,84.6,390z"/>
	</g>
</g>
<g>
	<g>
		<linearGradient id="SVGID_12_" gradientUnits="userSpaceOnUse" x1="175.8298" y1="480.8097" x2="176.8298" y2="64.8097">
			<stop  offset="0" style="stop-color:#FF6A42"/>
			<stop  offset="1" style="stop-color:#2149CC"/>
		</linearGradient>
		<path class="st11" d="M164.7,390h22.6c4.8,0,8.7,3.9,8.7,8.7v22.6c0,4.8-3.9,8.7-8.7,8.7h-22.6c-4.8,0-8.7-3.9-8.7-8.7v-22.6
			C156,393.9,159.9,390,164.7,390z"/>
	</g>
</g>
<g>
	<g>
		<linearGradient id="SVGID_13_" gradientUnits="userSpaceOnUse" x1="255.8293" y1="481.002" x2="256.8293" y2="65.002">
			<stop  offset="0" style="stop-color:#FF6A42"/>
			<stop  offset="1" style="stop-color:#2149CC"/>
		</linearGradient>
		<path class="st12" d="M244.3,390h23.4c4.6,0,8.3,3.7,8.3,8.3v23.4c0,4.6-3.7,8.3-8.3,8.3h-23.4c-4.6,0-8.3-3.7-8.3-8.3v-23.4
			C236,393.7,239.7,390,244.3,390z"/>
	</g>
</g>
<g>
	<g>
		<linearGradient id="SVGID_14_" gradientUnits="userSpaceOnUse" x1="335.8289" y1="481.1943" x2="336.8289" y2="65.1943">
			<stop  offset="0" style="stop-color:#FF6A42"/>
			<stop  offset="1" style="stop-color:#2149CC"/>
		</linearGradient>
		<path class="st13" d="M324.4,390h23.1c4.7,0,8.4,3.8,8.4,8.4v23.1c0,4.7-3.8,8.4-8.4,8.4h-23.1c-4.7,0-8.4-3.8-8.4-8.4v-23.1
			C316,393.8,319.8,390,324.4,390z"/>
	</g>
</g>
<g>
	<g>
		<linearGradient id="SVGID_15_" gradientUnits="userSpaceOnUse" x1="415.6361" y1="481.3861" x2="416.6361" y2="65.3861">
			<stop  offset="0" style="stop-color:#FF6A42"/>
			<stop  offset="1" style="stop-color:#2149CC"/>
		</linearGradient>
		<path class="st14" d="M404.4,310h23.1c4.7,0,8.4,3.8,8.4,8.4v23.1c0,4.7-3.8,8.4-8.4,8.4h-23.1c-4.7,0-8.4-3.8-8.4-8.4v-23.1
			C396,313.8,399.8,310,404.4,310z"/>
	</g>
</g>
</svg>
