<svg viewBox="0 -76 512 512" xmlns="http://www.w3.org/2000/svg"><path d="m296.71875 63.878906c2.683594-5.761718 4.289062-12.113281 4.289062-18.878906 0-24.8125-20.183593-45-45-45-24.8125 0-45 20.1875-45 45 0 6.765625 1.605469 13.117188 4.292969 18.878906-99.867187 18.347656-176.667969 102.738282-183.53125 206.121094h448.480469c-6.867188-103.382812-83.664062-187.773438-183.53125-206.121094zm-40.710938-3.878906c-8.273437 0-15-6.722656-15-15s6.726563-15 15-15c8.277344 0 15 6.722656 15 15s-6.722656 15-15 15zm0 0"/><path d="m0 300c6.96875 34.191406 39.792969 60 76.007812 60h360c36.21875 0 69.023438-25.808594 75.992188-60zm0 0"/></svg>