<?xml version="1.0" encoding="utf-8"?>
<!-- Generator: Adobe Illustrator 22.1.0, SVG Export Plug-In . SVG Version: 6.00 Build 0)  -->
<svg version="1.1" id="Layer_1" xmlns="http://www.w3.org/2000/svg" xmlns:xlink="http://www.w3.org/1999/xlink" x="0px" y="0px"
	 viewBox="0 0 463 463" style="enable-background:new 0 0 463 463;" xml:space="preserve">
<style type="text/css">
	.st0{fill:url(#SVGID_1_);}
	.st1{fill:url(#SVGID_2_);}
	.st2{fill:url(#SVGID_3_);}
	.st3{fill:url(#SVGID_4_);}
	.st4{fill:url(#SVGID_5_);}
	.st5{fill:url(#SVGID_6_);}
</style>
<g>
	<linearGradient id="SVGID_1_" gradientUnits="userSpaceOnUse" x1="226.118" y1="426.8655" x2="236.118" y2="63.8655">
		<stop  offset="0" style="stop-color:#FF6A42"/>
		<stop  offset="1" style="stop-color:#2149CC"/>
	</linearGradient>
	<path class="st0" d="M395.2,67.8C351.5,24.1,293.3,0,231.5,0s-120,24.1-163.7,67.8S0,169.7,0,231.5s24.1,120,67.8,163.7
		S169.7,463,231.5,463s120-24.1,163.7-67.8S463,293.3,463,231.5S438.9,111.5,395.2,67.8z M384.6,384.6
		c-40.9,40.9-95.3,63.4-153.1,63.4s-112.2-22.5-153.1-63.4C37.5,343.7,15,289.3,15,231.5S37.5,119.3,78.4,78.4
		C119.3,37.5,173.7,15,231.5,15s112.2,22.5,153.1,63.4c40.9,40.9,63.4,95.3,63.4,153.1S425.5,343.7,384.6,384.6z"/>
	<linearGradient id="SVGID_2_" gradientUnits="userSpaceOnUse" x1="226.1176" y1="426.8655" x2="236.1176" y2="63.8655">
		<stop  offset="0" style="stop-color:#FF6A42"/>
		<stop  offset="1" style="stop-color:#2149CC"/>
	</linearGradient>
	<path class="st1" d="M352.4,168.6c-3.8,1.7-5.4,6.2-3.7,9.9c7.5,16.7,11.4,34.5,11.4,52.9c0,46.4-25.2,89-65,111.7V71.5
		c0-3-1.8-5.7-4.5-6.9c-2.7-1.2-5.9-0.7-8.1,1.4c-7.4,6.8-13.7,15.6-19.1,25.6c-10.4-2.3-21.1-3.5-31.8-3.5c-2.9,0-5.7,0.1-8.5,0.3
		V71.5c0-4.1-3.4-7.5-7.5-7.5s-7.5,3.4-7.5,7.5v18.4c-5.8,1-11.5,2.3-17,3.9V71.5c0-4.1-3.4-7.5-7.5-7.5s-7.5,3.4-7.5,7.5v27.7
		c-5.9,2.5-11.6,5.3-17,8.5V71.5c0-4.1-3.4-7.5-7.5-7.5s-7.5,3.4-7.5,7.5v46.3c-34,26.3-56,67.4-56,113.7
		c0,38.2,14.9,74.2,41.9,101.3c1.5,1.5,3.4,2.2,5.3,2.2c1.9,0,3.8-0.7,5.3-2.2c2.9-2.9,2.9-7.7,0-10.6
		C116.3,298,103,265.7,103,231.5c0-37.1,15.8-70.5,41-94v30c0,10.3,6.7,19.1,16,22.3v185.7c0,13,10.5,23.5,23.5,23.5
		s23.5-10.5,23.5-23.5v-2.6c8.1,1.4,16.3,2.1,24.5,2.1c5.5,0,11-0.3,16.5-0.9v1.4c0,13,10.5,23.5,23.5,23.5s23.5-10.5,23.5-23.5
		v-15.3c48.8-24.1,80-74.1,80-128.7c0-20.6-4.3-40.5-12.7-59.1C360.6,168.6,356.1,166.9,352.4,168.6L352.4,168.6z M208,105.2V144
		h-17v-34.5C196.5,107.7,202.2,106.2,208,105.2z M176,115.6V144h-17v-18.5C164.4,121.8,170.1,118.5,176,115.6z M192,375.5
		c0,4.7-3.8,8.5-8.5,8.5s-8.5-3.8-8.5-8.5v-192c0-4.1-3.4-7.5-7.5-7.5c-4.7,0-8.5-3.8-8.5-8.5V159h24.5c0,0,0,0,0,0s0,0,0,0H208v8.5
		c0,4.7-3.8,8.5-8.5,8.5c-4.1,0-7.5,3.4-7.5,7.5V375.5z M231.5,360c-8.2,0-16.5-0.8-24.5-2.3V189.8c9.3-3.1,16-11.9,16-22.3v-64.2
		c2.8-0.2,5.6-0.3,8.5-0.3c8.5,0,16.9,0.8,25.1,2.5c-26.9,64-24.8,161.1-24.6,166.2c0.1,4.1,3.4,7.3,7.5,7.3h8.5v79.9
		C242.5,359.6,237,360,231.5,360z M280,375.5c0,4.7-3.8,8.5-8.5,8.5s-8.5-3.8-8.5-8.5v-104c0-4.1-3.4-7.5-7.5-7.5h-8.6
		c0-13,0.5-41.8,4.5-73.6c5.4-43.2,15.2-76.5,28.6-97.9V375.5z"/>
	<linearGradient id="SVGID_3_" gradientUnits="userSpaceOnUse" x1="319.2531" y1="429.4312" x2="329.2535" y2="66.4182">
		<stop  offset="0" style="stop-color:#FF6A42"/>
		<stop  offset="1" style="stop-color:#2149CC"/>
	</linearGradient>
	<path class="st2" d="M314.6,133.5c5.3,4.5,10.3,9.5,14.8,14.8c1.5,1.7,3.6,2.6,5.7,2.6c1.7,0,3.4-0.6,4.9-1.8
		c3.2-2.7,3.5-7.4,0.9-10.6c-5-5.9-10.6-11.5-16.6-16.6c-3.2-2.7-7.9-2.3-10.6,0.9C311.1,126.1,311.5,130.8,314.6,133.5L314.6,133.5
		z"/>
	<linearGradient id="SVGID_4_" gradientUnits="userSpaceOnUse" x1="100.1732" y1="423.396" x2="110.1732" y2="60.396">
		<stop  offset="0" style="stop-color:#FF6A42"/>
		<stop  offset="1" style="stop-color:#2149CC"/>
	</linearGradient>
	<path class="st3" d="M142.1,392.9c-29.3-16.3-53.6-40.2-70.4-69.2c-2.1-3.6-6.7-4.8-10.2-2.7c-3.6,2.1-4.8,6.7-2.7,10.2
		c18.1,31.4,44.5,57.2,76.1,74.8c1.2,0.6,2.4,0.9,3.6,0.9c2.6,0,5.2-1.4,6.6-3.9C147,399.5,145.7,394.9,142.1,392.9L142.1,392.9z"/>
	<linearGradient id="SVGID_5_" gradientUnits="userSpaceOnUse" x1="325.6028" y1="429.6061" x2="335.6028" y2="66.6061">
		<stop  offset="0" style="stop-color:#FF6A42"/>
		<stop  offset="1" style="stop-color:#2149CC"/>
	</linearGradient>
	<path class="st4" d="M323.8,71.7c5.3,3,10.4,6.4,15.4,9.9c1.3,1,2.9,1.4,4.4,1.4c2.3,0,4.6-1.1,6.1-3.1c2.4-3.4,1.7-8.1-1.7-10.5
		c-5.3-3.8-10.9-7.4-16.6-10.7c-3.6-2.1-8.2-0.8-10.2,2.7C318.9,65,320.2,69.6,323.8,71.7L323.8,71.7z"/>
	<linearGradient id="SVGID_6_" gradientUnits="userSpaceOnUse" x1="385.4882" y1="431.2559" x2="395.4882" y2="68.2559">
		<stop  offset="0" style="stop-color:#FF6A42"/>
		<stop  offset="1" style="stop-color:#2149CC"/>
	</linearGradient>
	<path class="st5" d="M426.7,189.9c-8-37.6-26.6-71.9-53.9-99.3c-2.9-2.9-7.7-2.9-10.6,0c-2.9,2.9-2.9,7.7,0,10.6
		c25.2,25.3,42.4,57.1,49.8,91.8c0.7,3.5,3.9,5.9,7.3,5.9c0.5,0,1-0.1,1.6-0.2C424.9,198,427.5,194,426.7,189.9L426.7,189.9z"/>
</g>
</svg>
