<?xml version="1.0" encoding="utf-8"?>
<!-- Generator: Adobe Illustrator 22.1.0, SVG Export Plug-In . SVG Version: 6.00 Build 0)  -->
<svg version="1.1" id="Capa_1" xmlns="http://www.w3.org/2000/svg" xmlns:xlink="http://www.w3.org/1999/xlink" x="0px" y="0px"
	 viewBox="0 0 512 512" style="enable-background:new 0 0 512 512;" xml:space="preserve">
<style type="text/css">
	.st0{fill:url(#SVGID_1_);}
	.st1{fill:url(#SVGID_2_);}
</style>
<g>
	<g>
		<linearGradient id="SVGID_1_" gradientUnits="userSpaceOnUse" x1="251.7949" y1="484.4624" x2="255.7949" y2="36.9624">
			<stop  offset="0" style="stop-color:#FF6A42"/>
			<stop  offset="1" style="stop-color:#2149CC"/>
		</linearGradient>
		<path class="st0" d="M376.3,30h18.4c5.1,0,9.2-4.1,9.2-9.2V9.7c0-5.3-4.3-9.7-9.7-9.7H115.4c-4.1,0-7.4,3.3-7.4,7.4V21
			c0,5,4,9,9,9h19.8v193.2c0,24.2,14.4,46,36.7,55.5l2.7,1.1c-30.8,24.1-50.5,61.7-50,103.9c0.8,69.4,56.7,126.4,126.1,128.3
			c73.3,2.1,133.6-57,133.6-129.8c0-41.4-19.4-78.2-49.6-102.1l8.7-3.7c19-8.1,31.4-26.8,31.4-47.5L376.3,30L376.3,30z M246.4,30
			h19.1c5.9,0,10.6,4.7,10.6,10.6v213.3c0,0,0,0,0,0c-6.5-1-13.3-1.6-20.1-1.6c-6.8,0-13.6,0.5-20.1,1.6c0,0,0,0,0,0V40.5
			C235.9,34.7,240.6,30,246.4,30z M166.8,214.3V39.2c0-5.1,4.1-9.2,9.2-9.2h19.7c5.6,0,10.1,4.5,10.1,10.1v206.1
			c0,6.4-6.6,10.8-12.5,8.2l0,0C177.3,247.7,166.8,231.8,166.8,214.3z M355.8,382.1c0,56.4-46.9,102-103.8,99.8
			c-52-2-94.1-44.3-95.9-96.3c-1.4-39.7,20.6-74.5,53.1-91.7c13.9-7.4,29.8-11.6,46.7-11.6c17,0,33.1,4.3,47.2,11.9
			C334.5,311,355.8,344.1,355.8,382.1z M322.2,253.5L322.2,253.5c-7.6,3.3-16.1-2.3-16.1-10.6v-203c0-5.4,4.4-9.8,9.8-9.8h21.2
			c5.1,0,9.2,4.1,9.2,9.2V217C346.3,232.9,336.8,247.2,322.2,253.5z"/>
	</g>
</g>
<g>
	<g>
		<linearGradient id="SVGID_2_" gradientUnits="userSpaceOnUse" x1="255.0852" y1="484.4918" x2="259.0852" y2="36.9918">
			<stop  offset="0" style="stop-color:#FF6A42"/>
			<stop  offset="1" style="stop-color:#2149CC"/>
		</linearGradient>
		<path class="st1" d="M267.5,309.4c-3.7-0.6-7.6-0.9-11.5-0.9c-3.6,0-7.2,0.3-10.6,0.8c-35.6,5.2-63,35.9-63,72.9
			c0,40.6,33,73.6,73.7,73.6s73.6-33,73.6-73.6C329.6,345.4,302.6,314.9,267.5,309.4z M256,425.8c-24.1,0-43.6-19.6-43.6-43.6
			s19.6-43.6,43.6-43.6s43.6,19.6,43.6,43.6S280.1,425.8,256,425.8z"/>
	</g>
</g>
</svg>
