<?xml version="1.0" encoding="utf-8"?>
<!-- Generator: Adobe Illustrator 22.1.0, SVG Export Plug-In . SVG Version: 6.00 Build 0)  -->
<svg version="1.1" id="Capa_1" xmlns="http://www.w3.org/2000/svg" xmlns:xlink="http://www.w3.org/1999/xlink" x="0px" y="0px"
	 viewBox="0 0 512 512" style="enable-background:new 0 0 512 512;" xml:space="preserve">
<style type="text/css">
	.st0{fill:url(#SVGID_1_);}
	.st1{fill:url(#SVGID_2_);}
	.st2{fill:url(#SVGID_3_);}
	.st3{fill:url(#SVGID_4_);}
	.st4{fill:url(#SVGID_5_);}
	.st5{fill:url(#SVGID_6_);}
</style>
<g>
	<g>
		<linearGradient id="SVGID_1_" gradientUnits="userSpaceOnUse" x1="132.892" y1="445.8717" x2="135.892" y2="123.8717">
			<stop  offset="0" style="stop-color:#FF6A42"/>
			<stop  offset="1" style="stop-color:#2149CC"/>
		</linearGradient>
		<path class="st0" d="M75,151.3h121c8.3,0,15,6.7,15,15v0c0,8.3-6.7,15-15,15H75c-8.3,0-15-6.7-15-15v0C60,158,66.7,151.3,75,151.3
			z"/>
	</g>
</g>
<g>
	<g>
		<linearGradient id="SVGID_2_" gradientUnits="userSpaceOnUse" x1="133.4514" y1="445.8769" x2="136.4514" y2="123.8769">
			<stop  offset="0" style="stop-color:#FF6A42"/>
			<stop  offset="1" style="stop-color:#2149CC"/>
		</linearGradient>
		<path class="st1" d="M75,211.4h121c8.3,0,15,6.7,15,15v0c0,8.3-6.7,15-15,15H75c-8.3,0-15-6.7-15-15v0
			C60,218.1,66.7,211.4,75,211.4z"/>
	</g>
</g>
<g>
	<g>
		<linearGradient id="SVGID_3_" gradientUnits="userSpaceOnUse" x1="134.0108" y1="445.8821" x2="137.0108" y2="123.8821">
			<stop  offset="0" style="stop-color:#FF6A42"/>
			<stop  offset="1" style="stop-color:#2149CC"/>
		</linearGradient>
		<path class="st2" d="M75,271.4h121c8.3,0,15,6.7,15,15v0c0,8.3-6.7,15-15,15H75c-8.3,0-15-6.7-15-15v0
			C60,278.1,66.7,271.4,75,271.4z"/>
	</g>
</g>
<g>
	<g>
		<linearGradient id="SVGID_4_" gradientUnits="userSpaceOnUse" x1="134.5703" y1="445.8873" x2="137.5703" y2="123.8873">
			<stop  offset="0" style="stop-color:#FF6A42"/>
			<stop  offset="1" style="stop-color:#2149CC"/>
		</linearGradient>
		<path class="st3" d="M75,331.5h121c8.3,0,15,6.7,15,15v0c0,8.3-6.7,15-15,15H75c-8.3,0-15-6.7-15-15v0
			C60,338.2,66.7,331.5,75,331.5z"/>
	</g>
</g>
<g>
	<g>
		<linearGradient id="SVGID_5_" gradientUnits="userSpaceOnUse" x1="375.2722" y1="448.1299" x2="378.2722" y2="126.1299">
			<stop  offset="0" style="stop-color:#FF6A42"/>
			<stop  offset="1" style="stop-color:#2149CC"/>
		</linearGradient>
		<path class="st4" d="M331.5,276.1v80.7c0,2.6,2.1,4.7,4.7,4.7h80.7c2.6,0,4.7-2.1,4.7-4.7v-80.7c0-2.6-2.1-4.7-4.7-4.7h-80.7
			C333.6,271.4,331.5,273.5,331.5,276.1z M386.9,331.5h-20.7c-2.6,0-4.7-2.1-4.7-4.7v-20.7c0-2.6,2.1-4.7,4.7-4.7h20.7
			c2.6,0,4.7,2.1,4.7,4.7v20.7C391.5,329.4,389.4,331.5,386.9,331.5z"/>
	</g>
</g>
<g>
	<g>
		<linearGradient id="SVGID_6_" gradientUnits="userSpaceOnUse" x1="254.5039" y1="447.0047" x2="257.5039" y2="125.0047">
			<stop  offset="0" style="stop-color:#FF6A42"/>
			<stop  offset="1" style="stop-color:#2149CC"/>
		</linearGradient>
		<path class="st5" d="M429.5,83.3l2.5-45c0.2-4.3-3.2-7.9-7.5-7.9h-95.9c-4.3,0-7.7,3.6-7.5,7.9l2.5,45c0.2,4.3-3.2,7.9-7.5,7.9
			h-30c-9.6,0-18.4,3-25.7,8.1c-2.6,1.8-6,1.8-8.6,0c-7.3-5.1-16.2-8.1-25.7-8.1H7.5c-4.1,0-7.5,3.4-7.5,7.5v375.3
			c0,4.1,3.4,7.5,7.5,7.5h497c4.1,0,7.5-3.4,7.5-7.5V98.8c0-4.1-3.4-7.5-7.5-7.5H437C432.6,91.3,429.2,87.6,429.5,83.3z
			 M233.5,451.6h-196c-4.1,0-7.5-3.4-7.5-7.5v-15c0-4.1,3.4-7.5,7.5-7.5h180.9c12.4,0,22.5,10.1,22.5,22.5v0
			C241,448.2,237.6,451.6,233.5,451.6z M241,384.6c0,4.5-4,8.1-8.5,7.4c-2.1-0.3-4.3-0.5-6.5-0.5H37.5c-4.1,0-7.5-3.4-7.5-7.5V128.8
			c0-4.1,3.4-7.5,7.5-7.5h180.9c12.4,0,22.5,10.1,22.5,22.5V384.6z M400.2,68.4l-7.5,135.9c-0.2,4-3.5,7.1-7.5,7.1h-17.4
			c-4,0-7.3-3.1-7.5-7.1l-7.5-135.9c-0.2-4.3,3.2-7.9,7.5-7.9c9,0,23.5,0,32.5,0C397.1,60.4,400.5,64,400.2,68.4z M482,444.1
			c0,4.1-3.4,7.5-7.5,7.5H271l0,0v-7.5c0-12.4,10.1-22.5,22.5-22.5h180.9c4.1,0,7.5,3.4,7.5,7.5V444.1z M482,391.5H286
			c-2.2,0-4.4,0.2-6.5,0.5c-4.5,0.7-8.5-2.9-8.5-7.4V136.3c0-8.3,6.7-15,15-15h32.5c4,0,7.3,3.1,7.5,7.1l5.9,105.9
			c0.2,4,3.5,7.1,7.5,7.1h74.2c4,0,7.3-3.1,7.5-7.1l5.9-105.9c0.2-4,3.5-7.1,7.5-7.1h40c4.1,0,7.5,3.4,7.5,7.5L482,391.5L482,391.5z
			"/>
	</g>
</g>
</svg>
