<?xml version="1.0" encoding="utf-8"?>
<!-- Generator: Adobe Illustrator 22.1.0, SVG Export Plug-In . SVG Version: 6.00 Build 0)  -->
<svg version="1.1" id="Capa_1" xmlns="http://www.w3.org/2000/svg" xmlns:xlink="http://www.w3.org/1999/xlink" x="0px" y="0px"
	 viewBox="0 0 32 32" style="enable-background:new 0 0 32 32;" xml:space="preserve">
<style type="text/css">
	.st0{fill:url(#SVGID_1_);}
	.st1{fill:url(#SVGID_2_);}
	.st2{fill:url(#SVGID_3_);}
	.st3{fill:url(#SVGID_4_);}
	.st4{fill:url(#SVGID_5_);}
	.st5{fill:url(#SVGID_6_);}
	.st6{fill:url(#SVGID_7_);}
	.st7{fill:url(#SVGID_8_);}
	.st8{fill:url(#SVGID_9_);}
	.st9{fill:url(#SVGID_10_);}
	.st10{fill:url(#SVGID_11_);}
	.st11{fill:url(#SVGID_12_);}
	.st12{fill:url(#SVGID_13_);}
</style>
<g>
	<g id="news">
		<linearGradient id="SVGID_1_" gradientUnits="userSpaceOnUse" x1="16.0784" y1="30.6029" x2="15.9222" y2="0.5092">
			<stop  offset="0" style="stop-color:#FF6A42"/>
			<stop  offset="1" style="stop-color:#2149CC"/>
		</linearGradient>
		<path class="st0" d="M29,0H7C5.3,0,4,1.3,4,3v2H3C1.3,5,0,6.3,0,8v20c0,2.2,1.8,4,4,4h24c2.2,0,4-1.8,4-4V3C32,1.3,30.7,0,29,0z
			 M30,28c0,1.1-0.9,2-2,2H4c-1.1,0-2-0.9-2-2V8c0-0.6,0.4-1,1-1h1v20c0,0.6,0.4,1,1,1s1-0.4,1-1V3c0-0.6,0.4-1,1-1h22
			c0.6,0,1,0.4,1,1V28z"/>
		<linearGradient id="SVGID_2_" gradientUnits="userSpaceOnUse" x1="23.5918" y1="30.5639" x2="23.4355" y2="0.4702">
			<stop  offset="0" style="stop-color:#FF6A42"/>
			<stop  offset="1" style="stop-color:#2149CC"/>
		</linearGradient>
		<path class="st1" d="M19.5,13h8c0.3,0,0.5-0.2,0.5-0.5S27.8,12,27.5,12h-8c-0.3,0-0.5,0.2-0.5,0.5S19.2,13,19.5,13z"/>
		<linearGradient id="SVGID_3_" gradientUnits="userSpaceOnUse" x1="23.6073" y1="30.5638" x2="23.4511" y2="0.4701">
			<stop  offset="0" style="stop-color:#FF6A42"/>
			<stop  offset="1" style="stop-color:#2149CC"/>
		</linearGradient>
		<path class="st2" d="M19.5,10h8c0.3,0,0.5-0.2,0.5-0.5S27.8,9,27.5,9h-8C19.2,9,19,9.2,19,9.5S19.2,10,19.5,10z"/>
		<linearGradient id="SVGID_4_" gradientUnits="userSpaceOnUse" x1="23.6229" y1="30.5637" x2="23.4667" y2="0.47">
			<stop  offset="0" style="stop-color:#FF6A42"/>
			<stop  offset="1" style="stop-color:#2149CC"/>
		</linearGradient>
		<path class="st3" d="M19.5,7h8C27.8,7,28,6.8,28,6.5S27.8,6,27.5,6h-8C19.2,6,19,6.2,19,6.5S19.2,7,19.5,7z"/>
		<linearGradient id="SVGID_5_" gradientUnits="userSpaceOnUse" x1="12.5162" y1="30.6214" x2="12.3599" y2="0.5277">
			<stop  offset="0" style="stop-color:#FF6A42"/>
			<stop  offset="1" style="stop-color:#2149CC"/>
		</linearGradient>
		<path class="st4" d="M16.5,27h-8C8.2,27,8,27.2,8,27.5C8,27.8,8.2,28,8.5,28h8c0.3,0,0.5-0.2,0.5-0.5C17,27.2,16.8,27,16.5,27z"/>
		<linearGradient id="SVGID_6_" gradientUnits="userSpaceOnUse" x1="12.5318" y1="30.6213" x2="12.3755" y2="0.5276">
			<stop  offset="0" style="stop-color:#FF6A42"/>
			<stop  offset="1" style="stop-color:#2149CC"/>
		</linearGradient>
		<path class="st5" d="M16.5,24h-8C8.2,24,8,24.2,8,24.5C8,24.8,8.2,25,8.5,25h8c0.3,0,0.5-0.2,0.5-0.5C17,24.2,16.8,24,16.5,24z"/>
		<linearGradient id="SVGID_7_" gradientUnits="userSpaceOnUse" x1="12.5473" y1="30.6213" x2="12.3911" y2="0.5275">
			<stop  offset="0" style="stop-color:#FF6A42"/>
			<stop  offset="1" style="stop-color:#2149CC"/>
		</linearGradient>
		<path class="st6" d="M16.5,21h-8C8.2,21,8,21.2,8,21.5C8,21.8,8.2,22,8.5,22h8c0.3,0,0.5-0.2,0.5-0.5C17,21.2,16.8,21,16.5,21z"/>
		<linearGradient id="SVGID_8_" gradientUnits="userSpaceOnUse" x1="23.5159" y1="30.5643" x2="23.3596" y2="0.4705">
			<stop  offset="0" style="stop-color:#FF6A42"/>
			<stop  offset="1" style="stop-color:#2149CC"/>
		</linearGradient>
		<path class="st7" d="M27.5,27h-8c-0.3,0-0.5,0.2-0.5,0.5c0,0.3,0.2,0.5,0.5,0.5h8c0.3,0,0.5-0.2,0.5-0.5C28,27.2,27.8,27,27.5,27z
			"/>
		<linearGradient id="SVGID_9_" gradientUnits="userSpaceOnUse" x1="23.5315" y1="30.5642" x2="23.3752" y2="0.4705">
			<stop  offset="0" style="stop-color:#FF6A42"/>
			<stop  offset="1" style="stop-color:#2149CC"/>
		</linearGradient>
		<path class="st8" d="M27.5,24h-8c-0.3,0-0.5,0.2-0.5,0.5c0,0.3,0.2,0.5,0.5,0.5h8c0.3,0,0.5-0.2,0.5-0.5C28,24.2,27.8,24,27.5,24z
			"/>
		<linearGradient id="SVGID_10_" gradientUnits="userSpaceOnUse" x1="23.547" y1="30.5641" x2="23.3908" y2="0.4704">
			<stop  offset="0" style="stop-color:#FF6A42"/>
			<stop  offset="1" style="stop-color:#2149CC"/>
		</linearGradient>
		<path class="st9" d="M27.5,21h-8c-0.3,0-0.5,0.2-0.5,0.5c0,0.3,0.2,0.5,0.5,0.5h8c0.3,0,0.5-0.2,0.5-0.5C28,21.2,27.8,21,27.5,21z
			"/>
		<linearGradient id="SVGID_11_" gradientUnits="userSpaceOnUse" x1="18.0783" y1="30.5925" x2="17.9221" y2="0.4988">
			<stop  offset="0" style="stop-color:#FF6A42"/>
			<stop  offset="1" style="stop-color:#2149CC"/>
		</linearGradient>
		<path class="st10" d="M27.5,15h-19C8.2,15,8,15.2,8,15.5S8.2,16,8.5,16h19c0.3,0,0.5-0.2,0.5-0.5S27.8,15,27.5,15z"/>
		<linearGradient id="SVGID_12_" gradientUnits="userSpaceOnUse" x1="18.0628" y1="30.5926" x2="17.9065" y2="0.4989">
			<stop  offset="0" style="stop-color:#FF6A42"/>
			<stop  offset="1" style="stop-color:#2149CC"/>
		</linearGradient>
		<path class="st11" d="M27.5,18h-19C8.2,18,8,18.2,8,18.5C8,18.8,8.2,19,8.5,19h19c0.3,0,0.5-0.2,0.5-0.5C28,18.2,27.8,18,27.5,18z
			"/>
		<linearGradient id="SVGID_13_" gradientUnits="userSpaceOnUse" x1="12.6148" y1="30.6209" x2="12.4586" y2="0.5271">
			<stop  offset="0" style="stop-color:#FF6A42"/>
			<stop  offset="1" style="stop-color:#2149CC"/>
		</linearGradient>
		<path class="st12" d="M9,13h7c0.6,0,1-0.4,1-1V5c0-0.6-0.4-1-1-1H9C8.4,4,8,4.5,8,5v7C8,12.6,8.4,13,9,13z M10,6h5v5h-5V6z"/>
	</g>
</g>
</svg>
