<?xml version="1.0" encoding="iso-8859-1"?>
<!-- Generator: Adobe Illustrator 19.0.0, SVG Export Plug-In . SVG Version: 6.00 Build 0)  -->
<svg version="1.1" id="Capa_1" xmlns="http://www.w3.org/2000/svg" xmlns:xlink="http://www.w3.org/1999/xlink" x="0px" y="0px"
	 viewBox="0 0 512.001 512.001" style="enable-background:new 0 0 512.001 512.001;" xml:space="preserve">
		<path d="M256,147.096c-54.318,0-98.508,44.19-98.508,98.508c0,54.318,44.19,98.508,98.508,98.508s98.508-44.19,98.508-98.508
			C354.508,191.287,310.318,147.096,256,147.096z M310.197,228.274l-61.253,56.682c-0.122,0.113-0.254,0.21-0.379,0.318
			c-0.181,0.157-0.362,0.314-0.549,0.461c-0.2,0.157-0.405,0.303-0.611,0.449c-0.194,0.138-0.387,0.276-0.586,0.403
			c-0.215,0.137-0.435,0.261-0.655,0.387c-0.198,0.113-0.394,0.228-0.596,0.331c-0.234,0.12-0.474,0.224-0.713,0.331
			c-0.195,0.087-0.389,0.179-0.587,0.257c-0.257,0.102-0.518,0.186-0.779,0.273c-0.187,0.062-0.372,0.131-0.561,0.186
			c-0.285,0.082-0.573,0.145-0.861,0.21c-0.171,0.038-0.339,0.086-0.511,0.118c-0.327,0.062-0.657,0.102-0.987,0.142
			c-0.136,0.016-0.271,0.043-0.407,0.056c-0.467,0.044-0.936,0.067-1.404,0.067c-0.001,0-0.001,0-0.002,0c0,0-0.001,0-0.002,0
			c-0.493,0-0.985-0.026-1.476-0.074c-0.142-0.014-0.282-0.043-0.423-0.061c-0.348-0.044-0.697-0.089-1.042-0.158
			c-0.175-0.035-0.346-0.086-0.52-0.127c-0.308-0.073-0.616-0.144-0.919-0.236c-0.19-0.058-0.375-0.132-0.564-0.197
			c-0.281-0.098-0.562-0.193-0.837-0.308c-0.2-0.083-0.394-0.182-0.59-0.274c-0.255-0.12-0.511-0.238-0.761-0.373
			c-0.204-0.11-0.401-0.235-0.601-0.355c-0.233-0.14-0.466-0.28-0.692-0.434c-0.201-0.137-0.395-0.287-0.591-0.434
			c-0.214-0.162-0.428-0.324-0.636-0.498c-0.19-0.16-0.373-0.332-0.556-0.503c-0.131-0.122-0.27-0.232-0.398-0.36l-26.764-26.764
			c-5.858-5.857-5.858-15.355,0-21.214c5.858-5.858,15.356-5.858,21.214,0l16.561,16.56l50.664-46.881
			c6.08-5.626,15.571-5.258,21.198,0.822C316.645,213.157,316.278,222.647,310.197,228.274z"/>
		<path d="M446.169,54.799L261.161,0.725l-0.381-0.106c-3.124-0.825-6.429-0.825-9.555-0.001l-0.192,0.051L65.834,54.799
			C52.172,58.51,42.65,70.945,42.65,85.122v263.777c0,34.633,19.117,65.859,49.922,81.615l121.144,71.205l0.842,0.459
			c12.975,6.548,27.209,9.823,41.443,9.823c14.233,0,28.468-3.274,41.442-9.823l0.429-0.216l121.558-71.448
			c30.805-15.754,49.922-46.98,49.922-81.615V85.122C469.351,70.946,459.831,58.511,446.169,54.799z M256,374.115
			c-70.86,0-128.509-57.649-128.509-128.509S185.14,117.096,256,117.096s128.509,57.649,128.509,128.509
			S326.861,374.115,256,374.115z"/>
</svg>
