<svg xmlns="http://www.w3.org/2000/svg" viewBox="0 0 512 512"><linearGradient id="a" gradientUnits="userSpaceOnUse" x1="255.507" y1="481.001" x2="256.507" y2="65.001"><stop offset="0" stop-color="#ff6a42"/><stop offset="1" stop-color="#2149cc"/></linearGradient><path d="M452 40h-24V8.4c0-4.6-3.8-8.4-8.4-8.4h-23.4c-4.6 0-8.2 3.7-8.2 8.2V40H124V8.4c0-4.6-3.8-8.4-8.4-8.4H92.4C87.8 0 84 3.8 84 8.4V40H60C26.9 40 0 66.9 0 100v352c0 33.1 26.9 60 60 60h392c33.1 0 60-26.9 60-60V100c0-33.1-26.9-60-60-60zm20 412c0 11-9 20-20 20H60c-11 0-20-9-20-20V188h432v264zm0-304H40v-48c0-11 9-20 20-20h24v31.7c0 4.6 3.7 8.3 8.3 8.3h23.4c4.5 0 8.2-3.7 8.2-8.2V80h264v31.7c0 4.6 3.7 8.3 8.3 8.3h23.4c4.6 0 8.3-3.7 8.3-8.3V80h24c11 0 20 9 20 20v48z" fill="url(#a)"/><linearGradient id="b" gradientUnits="userSpaceOnUse" x1="95.446" y1="480.616" x2="96.446" y2="64.617"><stop offset="0" stop-color="#ff6a42"/><stop offset="1" stop-color="#2149cc"/></linearGradient><path d="M85.1 230H107c5 0 9.1 4.1 9.1 9.1V261c0 5-4.1 9.1-9.1 9.1H85.1c-5 0-9.1-4.1-9.1-9.1v-21.9c0-5 4.1-9.1 9.1-9.1z" fill="url(#b)"/><linearGradient id="c" gradientUnits="userSpaceOnUse" x1="175.445" y1="480.809" x2="176.445" y2="64.809"><stop offset="0" stop-color="#ff6a42"/><stop offset="1" stop-color="#2149cc"/></linearGradient><path d="M164.4 230h23.1c4.7 0 8.4 3.8 8.4 8.4v23.1c0 4.7-3.8 8.4-8.4 8.4h-23.1c-4.7 0-8.4-3.8-8.4-8.4v-23.1c0-4.6 3.8-8.4 8.4-8.4z" fill="url(#c)"/><linearGradient id="d" gradientUnits="userSpaceOnUse" x1="255.445" y1="481.001" x2="256.445" y2="65.001"><stop offset="0" stop-color="#ff6a42"/><stop offset="1" stop-color="#2149cc"/></linearGradient><path d="M243.8 230h24.3c4.3 0 7.9 3.5 7.9 7.9v24.3c0 4.3-3.5 7.9-7.9 7.9h-24.3c-4.3 0-7.9-3.5-7.9-7.9v-24.3c.1-4.4 3.6-7.9 7.9-7.9z" fill="url(#d)"/><linearGradient id="e" gradientUnits="userSpaceOnUse" x1="335.444" y1="481.193" x2="336.444" y2="65.193"><stop offset="0" stop-color="#ff6a42"/><stop offset="1" stop-color="#2149cc"/></linearGradient><path d="M324.3 230h23.3c4.6 0 8.3 3.7 8.3 8.3v23.3c0 4.6-3.7 8.3-8.3 8.3h-23.3c-4.6 0-8.3-3.7-8.3-8.3v-23.3c0-4.6 3.7-8.3 8.3-8.3z" fill="url(#e)"/><linearGradient id="f" gradientUnits="userSpaceOnUse" x1="415.444" y1="481.386" x2="416.444" y2="65.386"><stop offset="0" stop-color="#ff6a42"/><stop offset="1" stop-color="#2149cc"/></linearGradient><path d="M404.6 230h22.7c4.8 0 8.6 3.9 8.6 8.6v22.7c0 4.8-3.9 8.6-8.6 8.6h-22.7c-4.8 0-8.6-3.9-8.6-8.6v-22.7c0-4.7 3.9-8.6 8.6-8.6z" fill="url(#f)"/><linearGradient id="g" gradientUnits="userSpaceOnUse" x1="95.638" y1="480.617" x2="96.638" y2="64.617"><stop offset="0" stop-color="#ff6a42"/><stop offset="1" stop-color="#2149cc"/></linearGradient><path d="M84.5 310h23.1c4.7 0 8.5 3.8 8.5 8.5v23.1c0 4.7-3.8 8.5-8.5 8.5H84.5c-4.7 0-8.5-3.8-8.5-8.5v-23.1c0-4.7 3.8-8.5 8.5-8.5z" fill="url(#g)"/><linearGradient id="h" gradientUnits="userSpaceOnUse" x1="175.637" y1="480.809" x2="176.637" y2="64.809"><stop offset="0" stop-color="#ff6a42"/><stop offset="1" stop-color="#2149cc"/></linearGradient><path d="M164.3 310h23.3c4.6 0 8.3 3.7 8.3 8.3v23.3c0 4.6-3.7 8.3-8.3 8.3h-23.3c-4.6 0-8.3-3.7-8.3-8.3v-23.3c0-4.6 3.7-8.3 8.3-8.3z" fill="url(#h)"/><linearGradient id="i" gradientUnits="userSpaceOnUse" x1="255.637" y1="481.002" x2="256.637" y2="65.001"><stop offset="0" stop-color="#ff6a42"/><stop offset="1" stop-color="#2149cc"/></linearGradient><path d="M244.4 310h23.2c4.6 0 8.4 3.8 8.4 8.4v23.2c0 4.6-3.8 8.4-8.4 8.4h-23.2c-4.6 0-8.4-3.8-8.4-8.4v-23.2c0-4.6 3.8-8.4 8.4-8.4z" fill="url(#i)"/><linearGradient id="j" gradientUnits="userSpaceOnUse" x1="335.637" y1="481.194" x2="336.637" y2="65.194"><stop offset="0" stop-color="#ff6a42"/><stop offset="1" stop-color="#2149cc"/></linearGradient><path d="M324.4 310h23.2c4.6 0 8.4 3.8 8.4 8.4v23.2c0 4.6-3.8 8.4-8.4 8.4h-23.2c-4.6 0-8.4-3.8-8.4-8.4v-23.2c0-4.6 3.8-8.4 8.4-8.4z" fill="url(#j)"/><linearGradient id="k" gradientUnits="userSpaceOnUse" x1="95.83" y1="480.617" x2="96.83" y2="64.617"><stop offset="0" stop-color="#ff6a42"/><stop offset="1" stop-color="#2149cc"/></linearGradient><path d="M84.6 390h22.8c4.8 0 8.6 3.9 8.6 8.6v22.8c0 4.8-3.9 8.6-8.6 8.6H84.6c-4.8 0-8.6-3.9-8.6-8.6v-22.8c0-4.7 3.9-8.6 8.6-8.6z" fill="url(#k)"/><linearGradient id="l" gradientUnits="userSpaceOnUse" x1="175.83" y1="480.81" x2="176.83" y2="64.81"><stop offset="0" stop-color="#ff6a42"/><stop offset="1" stop-color="#2149cc"/></linearGradient><path d="M164.7 390h22.6c4.8 0 8.7 3.9 8.7 8.7v22.6c0 4.8-3.9 8.7-8.7 8.7h-22.6c-4.8 0-8.7-3.9-8.7-8.7v-22.6c0-4.8 3.9-8.7 8.7-8.7z" fill="url(#l)"/><linearGradient id="m" gradientUnits="userSpaceOnUse" x1="255.829" y1="481.002" x2="256.829" y2="65.002"><stop offset="0" stop-color="#ff6a42"/><stop offset="1" stop-color="#2149cc"/></linearGradient><path d="M244.3 390h23.4c4.6 0 8.3 3.7 8.3 8.3v23.4c0 4.6-3.7 8.3-8.3 8.3h-23.4c-4.6 0-8.3-3.7-8.3-8.3v-23.4c0-4.6 3.7-8.3 8.3-8.3z" fill="url(#m)"/><linearGradient id="n" gradientUnits="userSpaceOnUse" x1="335.829" y1="481.194" x2="336.829" y2="65.194"><stop offset="0" stop-color="#ff6a42"/><stop offset="1" stop-color="#2149cc"/></linearGradient><path d="M324.4 390h23.1c4.7 0 8.4 3.8 8.4 8.4v23.1c0 4.7-3.8 8.4-8.4 8.4h-23.1c-4.7 0-8.4-3.8-8.4-8.4v-23.1c0-4.6 3.8-8.4 8.4-8.4z" fill="url(#n)"/><linearGradient id="o" gradientUnits="userSpaceOnUse" x1="415.636" y1="481.386" x2="416.636" y2="65.386"><stop offset="0" stop-color="#ff6a42"/><stop offset="1" stop-color="#2149cc"/></linearGradient><path d="M404.4 310h23.1c4.7 0 8.4 3.8 8.4 8.4v23.1c0 4.7-3.8 8.4-8.4 8.4h-23.1c-4.7 0-8.4-3.8-8.4-8.4v-23.1c0-4.6 3.8-8.4 8.4-8.4z" fill="url(#o)"/></svg>