<svg xmlns="http://www.w3.org/2000/svg" viewBox="0 0 512 512"><linearGradient id="a" gradientUnits="userSpaceOnUse" x1="251.795" y1="484.462" x2="255.795" y2="36.962"><stop offset="0" stop-color="#ff6a42"/><stop offset="1" stop-color="#2149cc"/></linearGradient><path d="M376.3 30h18.4c5.1 0 9.2-4.1 9.2-9.2V9.7c0-5.3-4.3-9.7-9.7-9.7H115.4c-4.1 0-7.4 3.3-7.4 7.4V21c0 5 4 9 9 9h19.8v193.2c0 24.2 14.4 46 36.7 55.5l2.7 1.1c-30.8 24.1-50.5 61.7-50 103.9.8 69.4 56.7 126.4 126.1 128.3 73.3 2.1 133.6-57 133.6-129.8 0-41.4-19.4-78.2-49.6-102.1l8.7-3.7c19-8.1 31.4-26.8 31.4-47.5L376.3 30zm-129.9 0h19.1c5.9 0 10.6 4.7 10.6 10.6v213.3c-6.5-1-13.3-1.6-20.1-1.6-6.8 0-13.6.5-20.1 1.6V40.5c0-5.8 4.7-10.5 10.5-10.5zm-79.6 184.3V39.2c0-5.1 4.1-9.2 9.2-9.2h19.7c5.6 0 10.1 4.5 10.1 10.1v206.1c0 6.4-6.6 10.8-12.5 8.2-16-6.7-26.5-22.6-26.5-40.1zm189 167.8c0 56.4-46.9 102-103.8 99.8-52-2-94.1-44.3-95.9-96.3-1.4-39.7 20.6-74.5 53.1-91.7 13.9-7.4 29.8-11.6 46.7-11.6 17 0 33.1 4.3 47.2 11.9 31.4 16.8 52.7 49.9 52.7 87.9zm-33.6-128.6c-7.6 3.3-16.1-2.3-16.1-10.6v-203c0-5.4 4.4-9.8 9.8-9.8h21.2c5.1 0 9.2 4.1 9.2 9.2V217c0 15.9-9.5 30.2-24.1 36.5z" fill="url(#a)"/><linearGradient id="b" gradientUnits="userSpaceOnUse" x1="255.085" y1="484.492" x2="259.085" y2="36.992"><stop offset="0" stop-color="#ff6a42"/><stop offset="1" stop-color="#2149cc"/></linearGradient><path d="M267.5 309.4c-3.7-.6-7.6-.9-11.5-.9-3.6 0-7.2.3-10.6.8-35.6 5.2-63 35.9-63 72.9 0 40.6 33 73.6 73.7 73.6s73.6-33 73.6-73.6c-.1-36.8-27.1-67.3-62.2-72.8zM256 425.8c-24.1 0-43.6-19.6-43.6-43.6s19.6-43.6 43.6-43.6 43.6 19.6 43.6 43.6-19.5 43.6-43.6 43.6z" fill="url(#b)"/></svg>