<svg xmlns="http://www.w3.org/2000/svg" viewBox="0 0 512 512"><linearGradient id="a" gradientUnits="userSpaceOnUse" x1="132.892" y1="445.872" x2="135.892" y2="123.872"><stop offset="0" stop-color="#ff6a42"/><stop offset="1" stop-color="#2149cc"/></linearGradient><path d="M75 151.3h121c8.3 0 15 6.7 15 15s-6.7 15-15 15H75c-8.3 0-15-6.7-15-15s6.7-15 15-15z" fill="url(#a)"/><linearGradient id="b" gradientUnits="userSpaceOnUse" x1="133.451" y1="445.877" x2="136.451" y2="123.877"><stop offset="0" stop-color="#ff6a42"/><stop offset="1" stop-color="#2149cc"/></linearGradient><path d="M75 211.4h121c8.3 0 15 6.7 15 15s-6.7 15-15 15H75c-8.3 0-15-6.7-15-15s6.7-15 15-15z" fill="url(#b)"/><linearGradient id="c" gradientUnits="userSpaceOnUse" x1="134.011" y1="445.882" x2="137.011" y2="123.882"><stop offset="0" stop-color="#ff6a42"/><stop offset="1" stop-color="#2149cc"/></linearGradient><path d="M75 271.4h121c8.3 0 15 6.7 15 15s-6.7 15-15 15H75c-8.3 0-15-6.7-15-15s6.7-15 15-15z" fill="url(#c)"/><linearGradient id="d" gradientUnits="userSpaceOnUse" x1="134.57" y1="445.887" x2="137.57" y2="123.887"><stop offset="0" stop-color="#ff6a42"/><stop offset="1" stop-color="#2149cc"/></linearGradient><path d="M75 331.5h121c8.3 0 15 6.7 15 15s-6.7 15-15 15H75c-8.3 0-15-6.7-15-15s6.7-15 15-15z" fill="url(#d)"/><linearGradient id="e" gradientUnits="userSpaceOnUse" x1="375.272" y1="448.13" x2="378.272" y2="126.13"><stop offset="0" stop-color="#ff6a42"/><stop offset="1" stop-color="#2149cc"/></linearGradient><path d="M331.5 276.1v80.7c0 2.6 2.1 4.7 4.7 4.7h80.7c2.6 0 4.7-2.1 4.7-4.7v-80.7c0-2.6-2.1-4.7-4.7-4.7h-80.7c-2.6 0-4.7 2.1-4.7 4.7zm55.4 55.4h-20.7c-2.6 0-4.7-2.1-4.7-4.7v-20.7c0-2.6 2.1-4.7 4.7-4.7h20.7c2.6 0 4.7 2.1 4.7 4.7v20.7c-.1 2.6-2.2 4.7-4.7 4.7z" fill="url(#e)"/><linearGradient id="f" gradientUnits="userSpaceOnUse" x1="254.504" y1="447.005" x2="257.504" y2="125.005"><stop offset="0" stop-color="#ff6a42"/><stop offset="1" stop-color="#2149cc"/></linearGradient><path d="M429.5 83.3l2.5-45c.2-4.3-3.2-7.9-7.5-7.9h-95.9c-4.3 0-7.7 3.6-7.5 7.9l2.5 45c.2 4.3-3.2 7.9-7.5 7.9h-30c-9.6 0-18.4 3-25.7 8.1-2.6 1.8-6 1.8-8.6 0-7.3-5.1-16.2-8.1-25.7-8.1H7.5c-4.1 0-7.5 3.4-7.5 7.5V474c0 4.1 3.4 7.5 7.5 7.5h497c4.1 0 7.5-3.4 7.5-7.5V98.8c0-4.1-3.4-7.5-7.5-7.5H437c-4.4 0-7.8-3.7-7.5-8zm-196 368.3h-196c-4.1 0-7.5-3.4-7.5-7.5v-15c0-4.1 3.4-7.5 7.5-7.5h180.9c12.4 0 22.5 10.1 22.5 22.5.1 4.1-3.3 7.5-7.4 7.5zm7.5-67c0 4.5-4 8.1-8.5 7.4-2.1-.3-4.3-.5-6.5-.5H37.5c-4.1 0-7.5-3.4-7.5-7.5V128.8c0-4.1 3.4-7.5 7.5-7.5h180.9c12.4 0 22.5 10.1 22.5 22.5v240.8zM400.2 68.4l-7.5 135.9c-.2 4-3.5 7.1-7.5 7.1h-17.4c-4 0-7.3-3.1-7.5-7.1l-7.5-135.9c-.2-4.3 3.2-7.9 7.5-7.9h32.5c4.3-.1 7.7 3.5 7.4 7.9zM482 444.1c0 4.1-3.4 7.5-7.5 7.5H271v-7.5c0-12.4 10.1-22.5 22.5-22.5h180.9c4.1 0 7.5 3.4 7.5 7.5v15zm0-52.6H286c-2.2 0-4.4.2-6.5.5-4.5.7-8.5-2.9-8.5-7.4V136.3c0-8.3 6.7-15 15-15h32.5c4 0 7.3 3.1 7.5 7.1l5.9 105.9c.2 4 3.5 7.1 7.5 7.1h74.2c4 0 7.3-3.1 7.5-7.1l5.9-105.9c.2-4 3.5-7.1 7.5-7.1h40c4.1 0 7.5 3.4 7.5 7.5v262.7z" fill="url(#f)"/></svg>