<svg xmlns="http://www.w3.org/2000/svg" viewBox="0 0 463 463"><linearGradient id="a" gradientUnits="userSpaceOnUse" x1="226.118" y1="426.865" x2="236.118" y2="63.865"><stop offset="0" stop-color="#ff6a42"/><stop offset="1" stop-color="#2149cc"/></linearGradient><path d="M395.2 67.8C351.5 24.1 293.3 0 231.5 0s-120 24.1-163.7 67.8S0 169.7 0 231.5s24.1 120 67.8 163.7S169.7 463 231.5 463s120-24.1 163.7-67.8S463 293.3 463 231.5s-24.1-120-67.8-163.7zm-10.6 316.8c-40.9 40.9-95.3 63.4-153.1 63.4s-112.2-22.5-153.1-63.4C37.5 343.7 15 289.3 15 231.5S37.5 119.3 78.4 78.4C119.3 37.5 173.7 15 231.5 15s112.2 22.5 153.1 63.4c40.9 40.9 63.4 95.3 63.4 153.1s-22.5 112.2-63.4 153.1z" fill="url(#a)"/><linearGradient id="b" gradientUnits="userSpaceOnUse" x1="226.118" y1="426.865" x2="236.118" y2="63.865"><stop offset="0" stop-color="#ff6a42"/><stop offset="1" stop-color="#2149cc"/></linearGradient><path d="M352.4 168.6c-3.8 1.7-5.4 6.2-3.7 9.9 7.5 16.7 11.4 34.5 11.4 52.9 0 46.4-25.2 89-65 111.7V71.5c0-3-1.8-5.7-4.5-6.9-2.7-1.2-5.9-.7-8.1 1.4-7.4 6.8-13.7 15.6-19.1 25.6-10.4-2.3-21.1-3.5-31.8-3.5-2.9 0-5.7.1-8.5.3V71.5c0-4.1-3.4-7.5-7.5-7.5s-7.5 3.4-7.5 7.5v18.4c-5.8 1-11.5 2.3-17 3.9V71.5c0-4.1-3.4-7.5-7.5-7.5s-7.5 3.4-7.5 7.5v27.7c-5.9 2.5-11.6 5.3-17 8.5V71.5c0-4.1-3.4-7.5-7.5-7.5s-7.5 3.4-7.5 7.5v46.3c-34 26.3-56 67.4-56 113.7 0 38.2 14.9 74.2 41.9 101.3 1.5 1.5 3.4 2.2 5.3 2.2s3.8-.7 5.3-2.2c2.9-2.9 2.9-7.7 0-10.6-24.3-24.2-37.6-56.5-37.6-90.7 0-37.1 15.8-70.5 41-94v30c0 10.3 6.7 19.1 16 22.3v185.7c0 13 10.5 23.5 23.5 23.5s23.5-10.5 23.5-23.5v-2.6c8.1 1.4 16.3 2.1 24.5 2.1 5.5 0 11-.3 16.5-.9v1.4c0 13 10.5 23.5 23.5 23.5s23.5-10.5 23.5-23.5v-15.3c48.8-24.1 80-74.1 80-128.7 0-20.6-4.3-40.5-12.7-59.1-1.7-3.8-6.2-5.5-9.9-3.8zM208 105.2V144h-17v-34.5c5.5-1.8 11.2-3.3 17-4.3zm-32 10.4V144h-17v-18.5c5.4-3.7 11.1-7 17-9.9zm16 259.9c0 4.7-3.8 8.5-8.5 8.5s-8.5-3.8-8.5-8.5v-192c0-4.1-3.4-7.5-7.5-7.5-4.7 0-8.5-3.8-8.5-8.5V159h49v8.5c0 4.7-3.8 8.5-8.5 8.5-4.1 0-7.5 3.4-7.5 7.5v192zm39.5-15.5c-8.2 0-16.5-.8-24.5-2.3V189.8c9.3-3.1 16-11.9 16-22.3v-64.2c2.8-.2 5.6-.3 8.5-.3 8.5 0 16.9.8 25.1 2.5-26.9 64-24.8 161.1-24.6 166.2.1 4.1 3.4 7.3 7.5 7.3h8.5v79.9c-5.5.7-11 1.1-16.5 1.1zm48.5 15.5c0 4.7-3.8 8.5-8.5 8.5s-8.5-3.8-8.5-8.5v-104c0-4.1-3.4-7.5-7.5-7.5h-8.6c0-13 .5-41.8 4.5-73.6 5.4-43.2 15.2-76.5 28.6-97.9v283z" fill="url(#b)"/><linearGradient id="c" gradientUnits="userSpaceOnUse" x1="319.253" y1="429.431" x2="329.253" y2="66.418"><stop offset="0" stop-color="#ff6a42"/><stop offset="1" stop-color="#2149cc"/></linearGradient><path d="M314.6 133.5c5.3 4.5 10.3 9.5 14.8 14.8 1.5 1.7 3.6 2.6 5.7 2.6 1.7 0 3.4-.6 4.9-1.8 3.2-2.7 3.5-7.4.9-10.6-5-5.9-10.6-11.5-16.6-16.6-3.2-2.7-7.9-2.3-10.6.9-2.6 3.3-2.2 8 .9 10.7z" fill="url(#c)"/><linearGradient id="d" gradientUnits="userSpaceOnUse" x1="100.173" y1="423.396" x2="110.173" y2="60.396"><stop offset="0" stop-color="#ff6a42"/><stop offset="1" stop-color="#2149cc"/></linearGradient><path d="M142.1 392.9c-29.3-16.3-53.6-40.2-70.4-69.2-2.1-3.6-6.7-4.8-10.2-2.7-3.6 2.1-4.8 6.7-2.7 10.2 18.1 31.4 44.5 57.2 76.1 74.8 1.2.6 2.4.9 3.6.9 2.6 0 5.2-1.4 6.6-3.9 1.9-3.5.6-8.1-3-10.1z" fill="url(#d)"/><linearGradient id="e" gradientUnits="userSpaceOnUse" x1="325.603" y1="429.606" x2="335.603" y2="66.606"><stop offset="0" stop-color="#ff6a42"/><stop offset="1" stop-color="#2149cc"/></linearGradient><path d="M323.8 71.7c5.3 3 10.4 6.4 15.4 9.9 1.3 1 2.9 1.4 4.4 1.4 2.3 0 4.6-1.1 6.1-3.1 2.4-3.4 1.7-8.1-1.7-10.5-5.3-3.8-10.9-7.4-16.6-10.7-3.6-2.1-8.2-.8-10.2 2.7-2.3 3.6-1 8.2 2.6 10.3z" fill="url(#e)"/><linearGradient id="f" gradientUnits="userSpaceOnUse" x1="385.488" y1="431.256" x2="395.488" y2="68.256"><stop offset="0" stop-color="#ff6a42"/><stop offset="1" stop-color="#2149cc"/></linearGradient><path d="M426.7 189.9c-8-37.6-26.6-71.9-53.9-99.3-2.9-2.9-7.7-2.9-10.6 0-2.9 2.9-2.9 7.7 0 10.6 25.2 25.3 42.4 57.1 49.8 91.8.7 3.5 3.9 5.9 7.3 5.9.5 0 1-.1 1.6-.2 4-.7 6.6-4.7 5.8-8.8z" fill="url(#f)"/></svg>