<svg xmlns="http://www.w3.org/2000/svg" viewBox="0 0 32 32"><linearGradient id="a" gradientUnits="userSpaceOnUse" x1="16.078" y1="30.603" x2="15.922" y2=".509"><stop offset="0" stop-color="#ff6a42"/><stop offset="1" stop-color="#2149cc"/></linearGradient><path d="M29 0H7C5.3 0 4 1.3 4 3v2H3C1.3 5 0 6.3 0 8v20c0 2.2 1.8 4 4 4h24c2.2 0 4-1.8 4-4V3c0-1.7-1.3-3-3-3zm1 28c0 1.1-.9 2-2 2H4c-1.1 0-2-.9-2-2V8c0-.6.4-1 1-1h1v20c0 .6.4 1 1 1s1-.4 1-1V3c0-.6.4-1 1-1h22c.6 0 1 .4 1 1v25z" fill="url(#a)"/><linearGradient id="b" gradientUnits="userSpaceOnUse" x1="23.592" y1="30.564" x2="23.436" y2=".47"><stop offset="0" stop-color="#ff6a42"/><stop offset="1" stop-color="#2149cc"/></linearGradient><path d="M19.5 13h8c.3 0 .5-.2.5-.5s-.2-.5-.5-.5h-8c-.3 0-.5.2-.5.5s.2.5.5.5z" fill="url(#b)"/><linearGradient id="c" gradientUnits="userSpaceOnUse" x1="23.607" y1="30.564" x2="23.451" y2=".47"><stop offset="0" stop-color="#ff6a42"/><stop offset="1" stop-color="#2149cc"/></linearGradient><path d="M19.5 10h8c.3 0 .5-.2.5-.5s-.2-.5-.5-.5h-8c-.3 0-.5.2-.5.5s.2.5.5.5z" fill="url(#c)"/><linearGradient id="d" gradientUnits="userSpaceOnUse" x1="23.623" y1="30.564" x2="23.467" y2=".47"><stop offset="0" stop-color="#ff6a42"/><stop offset="1" stop-color="#2149cc"/></linearGradient><path d="M19.5 7h8c.3 0 .5-.2.5-.5s-.2-.5-.5-.5h-8c-.3 0-.5.2-.5.5s.2.5.5.5z" fill="url(#d)"/><linearGradient id="e" gradientUnits="userSpaceOnUse" x1="12.516" y1="30.621" x2="12.36" y2=".528"><stop offset="0" stop-color="#ff6a42"/><stop offset="1" stop-color="#2149cc"/></linearGradient><path d="M16.5 27h-8c-.3 0-.5.2-.5.5s.2.5.5.5h8c.3 0 .5-.2.5-.5s-.2-.5-.5-.5z" fill="url(#e)"/><linearGradient id="f" gradientUnits="userSpaceOnUse" x1="12.532" y1="30.621" x2="12.376" y2=".528"><stop offset="0" stop-color="#ff6a42"/><stop offset="1" stop-color="#2149cc"/></linearGradient><path d="M16.5 24h-8c-.3 0-.5.2-.5.5s.2.5.5.5h8c.3 0 .5-.2.5-.5s-.2-.5-.5-.5z" fill="url(#f)"/><linearGradient id="g" gradientUnits="userSpaceOnUse" x1="12.547" y1="30.621" x2="12.391" y2=".527"><stop offset="0" stop-color="#ff6a42"/><stop offset="1" stop-color="#2149cc"/></linearGradient><path d="M16.5 21h-8c-.3 0-.5.2-.5.5s.2.5.5.5h8c.3 0 .5-.2.5-.5s-.2-.5-.5-.5z" fill="url(#g)"/><linearGradient id="h" gradientUnits="userSpaceOnUse" x1="23.516" y1="30.564" x2="23.36" y2=".47"><stop offset="0" stop-color="#ff6a42"/><stop offset="1" stop-color="#2149cc"/></linearGradient><path d="M27.5 27h-8c-.3 0-.5.2-.5.5s.2.5.5.5h8c.3 0 .5-.2.5-.5s-.2-.5-.5-.5z" fill="url(#h)"/><linearGradient id="i" gradientUnits="userSpaceOnUse" x1="23.532" y1="30.564" x2="23.375" y2=".47"><stop offset="0" stop-color="#ff6a42"/><stop offset="1" stop-color="#2149cc"/></linearGradient><path d="M27.5 24h-8c-.3 0-.5.2-.5.5s.2.5.5.5h8c.3 0 .5-.2.5-.5s-.2-.5-.5-.5z" fill="url(#i)"/><linearGradient id="j" gradientUnits="userSpaceOnUse" x1="23.547" y1="30.564" x2="23.391" y2=".47"><stop offset="0" stop-color="#ff6a42"/><stop offset="1" stop-color="#2149cc"/></linearGradient><path d="M27.5 21h-8c-.3 0-.5.2-.5.5s.2.5.5.5h8c.3 0 .5-.2.5-.5s-.2-.5-.5-.5z" fill="url(#j)"/><linearGradient id="k" gradientUnits="userSpaceOnUse" x1="18.078" y1="30.593" x2="17.922" y2=".499"><stop offset="0" stop-color="#ff6a42"/><stop offset="1" stop-color="#2149cc"/></linearGradient><path d="M27.5 15h-19c-.3 0-.5.2-.5.5s.2.5.5.5h19c.3 0 .5-.2.5-.5s-.2-.5-.5-.5z" fill="url(#k)"/><linearGradient id="l" gradientUnits="userSpaceOnUse" x1="18.063" y1="30.593" x2="17.907" y2=".499"><stop offset="0" stop-color="#ff6a42"/><stop offset="1" stop-color="#2149cc"/></linearGradient><path d="M27.5 18h-19c-.3 0-.5.2-.5.5s.2.5.5.5h19c.3 0 .5-.2.5-.5s-.2-.5-.5-.5z" fill="url(#l)"/><linearGradient id="m" gradientUnits="userSpaceOnUse" x1="12.615" y1="30.621" x2="12.459" y2=".527"><stop offset="0" stop-color="#ff6a42"/><stop offset="1" stop-color="#2149cc"/></linearGradient><path d="M9 13h7c.6 0 1-.4 1-1V5c0-.6-.4-1-1-1H9c-.6 0-1 .5-1 1v7c0 .6.4 1 1 1zm1-7h5v5h-5V6z" fill="url(#m)"/></svg>