<svg xmlns="http://www.w3.org/2000/svg" viewBox="0 0 90 90"><linearGradient id="a" gradientUnits="userSpaceOnUse" x1="44.993" y1="83.773" x2="46.618" y2="5.023"><stop offset="0" stop-color="#ff6a42"/><stop offset="1" stop-color="#2149cc"/></linearGradient><path d="M90 43.8C90 68 70.2 87.6 45.8 87.6c-7.5 0-14.5-1.8-20.7-5.1-.5-.2-1-.3-1.5-.1l-20 6.5c-1.5.5-2.9-1-2.4-2.4l6.5-19.1c.2-.5.1-1.1-.2-1.6-3.7-6.4-5.9-13.9-5.9-21.9C1.6 19.6 21.4 0 45.8 0 70.2 0 90 19.6 90 43.8zM45.8 7C25.3 7 8.7 23.5 8.7 43.8c0 7.7 2.4 14.9 6.5 20.8.3.5.4 1.1.3 1.7l-3.1 9.2c-.5 1.5.9 2.9 2.4 2.4l9.8-3.1c.5-.2 1.1-.1 1.6.2 5.7 3.6 12.5 5.6 19.7 5.6C66.3 80.7 83 64.2 83 43.8S66.3 7 45.8 7zm22.3 46.9c-.3-.4-1-.7-2.1-1.3-1.1-.5-6.4-3.1-7.4-3.5-1-.4-1.7-.5-2.4.5-.7 1.1-2.8 3.5-3.4 4.2-.6.7-1.3.8-2.3.3-1.1-.5-4.6-1.7-8.7-5.3-3.2-2.8-5.4-6.4-6-7.4-.6-1.1-.1-1.7.5-2.2.5-.5 1.1-1.3 1.6-1.9.5-.6.7-1.1 1.1-1.8.4-.7.2-1.3-.1-1.9-.3-.5-2.4-5.8-3.3-8-.9-2.1-1.8-1.8-2.4-1.8-.6 0-1.4-.1-2.1-.1s-1.9.3-2.9 1.3c-1 1.1-3.8 3.7-3.8 9s3.9 10.4 4.4 11.1c.5.7 7.5 11.9 18.5 16.2 11 4.3 11 2.9 13 2.7 2-.2 6.4-2.6 7.3-5.1.8-2.4.8-4.5.5-5z" fill="url(#a)"/></svg>